<svg version="2.0" viewBox="0 0 256 256" xmlns="http://www.w3.org/2000/svg">
  <circle id="kreis" cx="128" cy="128" r="128" />
  <circle id="kopf" cx="128" cy="138" r="82" fill="#99f" />
  <circle id="auge-links" cx="94" cy="119" r="12" />
  <circle id="auge-rechts" cx="165" cy="135" r="18" />
  <path id="kopfhoerer"
    d="m124.5 18.4c-12.7-0.1-25.3 2.2-37.4 6.2-13.3 4.5-25.9 11.4-36.5 20.8-4.9 4.6-9.7 9.5-13.5 15.2-7.3 10.6-12.3 23.1-13.1 36.1-0.1 4-0.1 8.1 0 12.2-4.2 3.4-8.2 7.2-10.9 12-5.8 9.8-7 22.4-2.9 33.2 4 11 13.5 19.9 24.8 23.2 3.2 0.9 6.5 1.5 9.8 1.5 0.5-0.4-0.1-1.2-0.1-1.7-2.6-9.6-4.1-19.6-4.4-29.6-0.2-11.8 0.1-23.8 2.7-35.4 0.5-3.1 1.5-6.1 2-9.2-2.5-0.5-5.3-0.2-7.8 0.3-1.2 0.2-2.4 0.8-3.6 1-0.1-4.3 0.3-8.7 1.2-13 3.2-16.9 13.8-31.8 27.5-42.2 15.3-11.7 34.1-18.2 53.2-20 6.3-0.5 12.7-0.3 19.1-0.1 14.5 1.1 28.9 5 41.8 11.9 12.2 6.3 23.1 15.6 30.8 27.1 6.7 10 10.8 21.9 11 34 0.4 1.3-0.7 0.9-1.6 0.8-2.1-0.1-4.2-0.2-6.3-0.2 0 1.5 0.7 3.1 0.9 4.6 2.8 12.7 4.2 25.9 3.7 39-0.3 11-1.9 21.9-4.8 32.5 0.4 0.4 1.3 0 1.9 0.1 9.9-0.2 19.6-4.8 26.2-12.2 6.5-7.2 10.1-17 9.7-26.8-0.1-12.4-7-24.4-17.5-31-0.6-0.5-1.9-0.8-1.7-1.9-0.1-5.7 0-11.4-1.1-17.1-2.9-15.9-11.3-30.5-22.9-41.5-7.5-7.5-16.4-13.4-25.9-18-14.4-7.1-30.4-11.1-46.5-11.8h-7.7zM60.9 158.4 60.9 158.4"
    fill="#99f" />
  <path id="mund"
    d="m60.9 158.4c-2.4 0-4.7 2.2-4.6 4.7 0.1 1.9 1.7 3.6 3.6 4 6.9 2 14 3.5 21.2 4.8 15.5 2.8 31.2 4.2 47 4.4 7.3 0 14.6 0 21.9-0.4 15.2-0.7 30.4-2.5 45.3-5.5 1.3-0.3 2.8-0.4 3.8-1.5 1.8-1.7 1.7-4.9-0.1-6.5-1.1-1-2.7-1.2-4.2-0.9-12 2.3-24.3 3.6-36.6 4.5-13.8 0.9-27.6 1.1-41.5 0.4-18-0.9-35.9-3.3-53.5-7.7-0.7-0.1-1.5-0.3-2.3-0.3z" />
</svg>